Coordinates
version=1
nRows=21
nColumns=19
inDegrees=yes

Units are S.I. units (second, meters, Newtons, ...)
If the header above contains a line with 'inDegrees', this indicates whether rotational values are in degrees (yes) or radians (no).

endheader
time	pelvis_obliquity	pelvis_rotation	pelvis_tilt	pelvis_to_ground_tx	pelvis_to_ground_ty	pelvis_to_ground_tz	left_hip_abduction	left_hip_rotation	left_hip_flexion	left_knee_flexion	left_ankle_flexion	left_subtalar_angle	right_hip_abduction	right_hip_rotation	right_hip_flexion	right_knee_flexion	right_ankle_flexion	right_subtalar_angle
      5.59000000	     87.35433121	     24.86205878	     -8.48282638	      0.98358350	     -0.61708143	      0.58272554	      5.75656735	    -19.65710908	     16.94721055	    -37.60494850	    -18.54376616	     -8.57170385	     -1.39862049	      7.45527693	     33.72271922	    -24.35045662	     -0.75708866	    -16.77531803
      5.60000000	     86.72713476	     24.41278473	     -8.72590308	      0.99174399	     -0.61884272	      0.58473759	      6.17279750	    -18.45488956	     19.27160054	    -39.51737289	    -18.58286280	     -9.14639844	     -0.46497384	      8.25230444	     32.65614658	    -22.52245236	     -0.88154246	    -16.56156615
      5.61000000	     86.28359857	     23.92568002	     -8.97309320	      0.99964980	     -0.62057281	      0.58687417	      6.31775658	    -17.12864892	     21.50809805	    -41.08408199	    -18.52029139	     -9.94508174	      0.28414552	      9.03681047	     31.48360276	    -20.57150654	     -1.16792202	    -16.34972259
      5.62000000	     86.00032076	     23.41770199	     -9.19314914	      1.00730735	     -0.62225103	      0.58905247	      6.20132272	    -15.70417892	     23.64158642	    -42.32851915	    -18.38889743	    -10.76475609	      0.88668709	      9.75042458	     30.22094499	    -18.57905921	     -1.47934354	    -16.14335051
      5.63000000	     85.88835579	     22.87239048	     -9.41344313	      1.01471402	     -0.62382700	      0.59118633	      5.80806443	    -14.22006260	     25.69304285	    -43.27589828	    -18.08579019	    -12.31835156	      1.34094707	     10.30027560	     28.94568313	    -16.65557944	     -2.33831467	    -16.06144475
      5.64000000	     85.88438203	     22.27588927	     -9.56182096	      1.02192400	     -0.62530631	      0.59326940	      5.18292302	    -12.68615562	     27.58767164	    -43.91944906	    -17.95663768	    -12.86942830	      1.67479465	     10.94378685	     27.57123591	    -14.73073170	     -2.48803126	    -15.84450591
      5.65000000	     85.98517362	     21.61641482	     -9.69754146	      1.02892437	     -0.62663668	      0.59521462	      4.35150329	    -11.15299496	     29.39901554	    -44.30661453	    -17.63656014	    -13.66082153	      1.90310778	     11.52007591	     26.22130329	    -12.92995410	     -2.87169508	    -15.58925625
      5.66000000	     86.12770708	     20.91070406	     -9.76343753	      1.03574072	     -0.62781796	      0.59694193	      3.38970264	     -9.66524144	     31.10814555	    -44.49571749	    -17.17570157	    -14.94501551	      2.12037448	     11.86476394	     24.90768329	    -11.36439026	     -3.72098286	    -15.49071543
      5.67000000	     86.30248696	     20.13064133	     -9.77979247	      1.04242043	     -0.62883998	      0.59849204	      2.32539537	     -8.26985293	     32.70228128	    -44.46473748	    -17.02039364	    -15.32277331	      2.27823550	     12.31008614	     23.58832174	     -9.89848529	     -3.86073601	    -15.25924290
      5.68000000	     86.46609039	     19.28469607	     -9.73793072	      1.04897390	     -0.62969642	      0.59979306	      1.23940936	     -7.00971295	     34.20680115	    -44.26982386	    -16.62700300	    -16.03325101	      2.44924526	     12.64127759	     22.31863970	     -8.64401302	     -4.45086045	    -15.06065588
      5.69000000	     86.59165060	     18.38000619	     -9.65046997	      1.05545064	     -0.63040965	      0.60085850	      0.19698327	     -5.93625062	     35.62977823	    -43.91910769	    -16.53126222	    -16.23214648	      2.64200533	     12.99933579	     21.07865063	     -7.52526711	     -4.54520838	    -14.84716866
      5.70000000	     86.67759546	     17.40605511	     -9.51166576	      1.06188390	     -0.63097302	      0.60168134	     -0.76203097	     -5.07993998	     36.94615031	    -43.41111297	    -16.32127338	    -16.47754619	      2.86651457	     13.32876681	     19.86642678	     -6.56496717	     -4.93276088	    -14.63652146
      5.71000000	     86.67954350	     16.34631618	     -9.33201586	      1.06829248	     -0.63142614	      0.60222832	     -1.56665524	     -4.37764204	     38.19604617	    -42.78887606	    -16.33131601	    -16.51424573	      3.16682522	     13.57290915	     18.73978713	     -5.83462480	     -4.94567235	    -14.48233578
      5.72000000	     86.60392851	     15.26251795	     -9.13409604	      1.07475782	     -0.63179199	      0.60256785	     -2.15479481	     -3.99439354	     39.34605974	    -42.00909855	    -16.36194403	    -16.48357615	      3.52721181	     14.00340364	     17.56842165	     -5.06000207	     -4.99639374	    -14.26622609
      5.73000000	     86.44134554	     14.12675412	     -8.91591572	      1.08129861	     -0.63208984	      0.60267090	     -2.50091509	     -3.85027719	     40.38668455	    -41.08192486	    -16.44917308	    -16.37269572	      3.97454786	     14.39608900	     16.42827392	     -4.40335331	     -5.06032913	    -14.08304390
      5.74000000	     86.20351621	     12.94508653	     -8.68722100	      1.08796045	     -0.63234151	      0.60256739	     -2.58541212	     -3.95215969	     41.28511899	    -39.98014508	    -16.59659259	    -16.19349476	      4.49528219	     14.80067979	     15.29750651	     -3.82602875	     -5.10343909	    -13.92531685
      5.75000000	     85.88231038	     11.70997239	     -8.44973636	      1.09478079	     -0.63257390	      0.60225772	     -2.38896670	     -4.25435585	     42.02412278	    -38.71160891	    -16.80397257	    -15.95992086	      5.09711507	     15.22517607	     14.17654856	     -3.33752404	     -5.13014991	    -13.79280346
      5.76000000	     85.47692239	     10.40174534	     -8.18675186	      1.10181624	     -0.63281315	      0.60175935	     -1.93597534	     -4.61733604	     42.57248773	    -37.28791913	    -17.11852535	    -15.64139879	      5.78478751	     15.68833419	     13.02632053	     -2.91585687	     -5.18122558	    -13.70220580
      5.77000000	     85.03609986	      9.09726139	     -7.95990902	      1.10909847	     -0.63306780	      0.60111941	     -1.22272848	     -5.24661587	     42.91568714	    -35.66440628	    -17.42341535	    -15.38992671	      6.50557346	     16.14863163	     11.88375063	     -2.53359228	     -5.18451596	    -13.61979404
      5.78000000	     84.54522512	      7.77941166	     -7.74366965	      1.11665252	     -0.63337320	      0.60033580	     -0.27906398	     -6.00637978	     43.03784446	    -33.89394761	    -17.73937368	    -15.22119393	      7.27605415	     16.60952863	     10.74126339	     -2.22951728	     -5.16590941	    -13.53631668
      5.79000000	     84.01948283	      6.47132959	     -7.53785809	      1.12450801	     -0.63374694	      0.59942981	      0.84611559	     -6.87331635	     42.92923563	    -32.01599917	    -18.06271689	    -15.15266935	      8.08356890	     17.07136015	      9.59073862	     -1.99685125	     -5.13560215	    -13.44554256
